<?xml version="1.0" standalone="no"?>
<svg viewBox="0 0 200 200" xmlns="http://www.w3.org/2000/svg">
  <path fill="#73766A" d="M30.8,-48.2C43.7,-46,60.5,-45.3,68.5,-37.5C76.6,-29.7,75.8,-14.9,69,-4C62.1,6.9,49.1,13.9,42.3,23.8C35.5,33.6,34.8,46.4,28.8,49.5C22.8,52.5,11.4,45.8,1.9,42.5C-7.6,39.2,-15.2,39.3,-23,37.3C-30.8,35.3,-38.9,31.2,-44.1,24.7C-49.2,18.1,-51.4,9,-49.9,0.9C-48.4,-7.3,-43,-14.5,-36.8,-19.2C-30.5,-23.8,-23.3,-25.9,-17.1,-31.9C-10.8,-37.9,-5.4,-47.9,1.8,-51C9,-54.1,17.9,-50.4,30.8,-48.2Z" transform="translate(100 100)" />
</svg>
