<?xml version="1.0" standalone="no"?>
<svg viewBox="0 0 200 200" xmlns="http://www.w3.org/2000/svg">
  <path fill="#6B4288" d="M23.8,-42C28.5,-38.4,28.6,-27.5,37.8,-19.2C47.1,-11,65.6,-5.5,66.6,0.5C67.5,6.6,50.9,13.2,41,20.3C31.1,27.5,27.9,35.2,22.2,43.2C16.5,51.3,8.2,59.7,1.2,57.5C-5.8,55.4,-11.5,42.7,-19.7,36C-27.8,29.3,-38.3,28.8,-40,23.8C-41.7,18.8,-34.5,9.4,-35.4,-0.5C-36.4,-10.5,-45.4,-20.9,-46.1,-30.1C-46.9,-39.3,-39.4,-47.3,-30.3,-48.4C-21.3,-49.5,-10.6,-43.7,-0.6,-42.7C9.5,-41.7,19,-45.5,23.8,-42Z" transform="translate(100 100)" />
</svg>
