<?xml version="1.0" standalone="no"?>
<svg viewBox="0 0 200 200" xmlns="http://www.w3.org/2000/svg">
  <path fill="#91A8A4" d="M46.4,-76.2C59.7,-72.7,69.8,-59.4,77.8,-45.1C85.7,-30.8,91.5,-15.4,85.6,-3.4C79.8,8.7,62.4,17.3,50.6,24.9C38.8,32.5,32.6,39.1,25.1,49.3C17.6,59.5,8.8,73.4,-2.9,78.5C-14.7,83.6,-29.3,79.9,-39.7,71.3C-50,62.8,-56.1,49.3,-62,36.6C-67.9,23.9,-73.7,12,-76,-1.3C-78.3,-14.6,-77.1,-29.2,-71.4,-42.3C-65.7,-55.4,-55.5,-66.9,-42.8,-70.7C-30.2,-74.6,-15.1,-70.7,0.7,-72C16.5,-73.3,33.1,-79.6,46.4,-76.2Z" transform="translate(100 100)" />
</svg>
